<svg xmlns="http://www.w3.org/2000/svg" viewBox="0 0 256 256" width="256" height="256">
  <defs>
    <linearGradient id="bg" x1="0" y1="0" x2="0" y2="1">
      <stop offset="0" stop-color="#1A2430"></stop>
      <stop offset="1" stop-color="#0B0F14"></stop>
    </linearGradient>
    <marker id="arr" viewBox="0 0 10 10" refX="8" refY="5" markerWidth="4" markerHeight="4" orient="auto-start-reverse">
      <path d="M 0 0 L 10 5 L 0 10 z" fill="#1877BC"></path>
    </marker>
  </defs>
  <rect x="0" y="0" width="256" height="256" rx="56" fill="url(#bg)"></rect>
  <g opacity="0.08" stroke="white">
    <line x1="16" y1="32" x2="240" y2="32" stroke-width="1"></line>
    <line x1="16" y1="64" x2="240" y2="64" stroke-width="1"></line>
    <line x1="16" y1="96" x2="240" y2="96" stroke-width="1"></line>
    <line x1="16" y1="128" x2="240" y2="128" stroke-width="1"></line>
    <line x1="16" y1="160" x2="240" y2="160" stroke-width="1"></line>
    <line x1="16" y1="192" x2="240" y2="192" stroke-width="1"></line>
    <line x1="16" y1="224" x2="240" y2="224" stroke-width="1"></line>
    <line x1="32" y1="16" x2="32" y2="240" stroke-width="1"></line>
    <line x1="64" y1="16" x2="64" y2="240" stroke-width="1"></line>
    <line x1="96" y1="16" x2="96" y2="240" stroke-width="1"></line>
    <line x1="128" y1="16" x2="128" y2="240" stroke-width="1"></line>
    <line x1="160" y1="16" x2="160" y2="240" stroke-width="1"></line>
    <line x1="192" y1="16" x2="192" y2="240" stroke-width="1"></line>
    <line x1="224" y1="16" x2="224" y2="240" stroke-width="1"></line>
  </g>
  <rect x="4" y="4" width="248" height="248" rx="54" fill="none" stroke="white" stroke-opacity="0.06" stroke-width="2"></rect>
  <line x1="64" y1="74" x2="110" y2="118" stroke="#1877BC" stroke-width="8" stroke-linecap="round" marker-end="url(#arr)"></line>
  <line x1="146" y1="118" x2="192" y2="74" stroke="#1877BC" stroke-width="8" stroke-linecap="round" marker-end="url(#arr)"></line>
  <line x1="128" y1="150" x2="128" y2="186" stroke="#1877BC" stroke-width="8" stroke-linecap="round" marker-end="url(#arr)"></line>
  <circle cx="56" cy="66" r="20" fill="white"></circle>
  <rect x="104" y="104" width="48" height="48" rx="4" transform="rotate(45 128 128)" fill="#1877BC"></rect>
  <circle cx="200" cy="66" r="26" fill="none" stroke="#22D3EE" stroke-width="3" opacity="0.9"></circle>
  <circle cx="200" cy="66" r="20" fill="#22D3EE"></circle>
  <circle cx="128" cy="196" r="20" fill="white"></circle>
</svg>